<?xml version="1.0" encoding="UTF-8" standalone="no"?><svg xmlns="http://www.w3.org/2000/svg" xmlns:xlink="http://www.w3.org/1999/xlink" contentScriptType="application/ecmascript" contentStyleType="text/css" height="275px" preserveAspectRatio="none" style="width:612px;height:275px;background:#FFFFFF;" version="1.1" viewBox="0 0 612 275" width="612px" zoomAndPan="magnify"><defs><filter height="300%" id="fmr6pgugixynx" width="300%" x="-1" y="-1"><feGaussianBlur result="blurOut" stdDeviation="2.0"/><feColorMatrix in="blurOut" result="blurOut2" type="matrix" values="0 0 0 0 0 0 0 0 0 0 0 0 0 0 0 0 0 0 .4 0"/><feOffset dx="4.0" dy="4.0" in="blurOut2" result="blurOut3"/><feBlend in="SourceGraphic" in2="blurOut3" mode="normal"/></filter></defs><g><!--MD5=[3afc29ee1ef1b4aa598c0114c5829f88]
class PythonExceptionInterface--><rect codeLine="10" fill="#EBEBEB" filter="url(#fmr6pgugixynx)" height="48" id="PythonExceptionInterface" style="stroke:#333333;stroke-width:1.5;" width="176" x="89" y="7"/><ellipse cx="104" cy="23" fill="#B4A7E5" rx="11" ry="11" style="stroke:#333333;stroke-width:1.0;"/><path d="M99.9277,18.7651 L99.9277,16.6069 L107.3071,16.6069 L107.3071,18.7651 L104.8418,18.7651 L104.8418,26.8418 L107.3071,26.8418 L107.3071,29 L99.9277,29 L99.9277,26.8418 L102.3931,26.8418 L102.3931,18.7651 Z " fill="#000000"/><text fill="#000000" font-family="sans-serif" font-size="12" font-style="italic" lengthAdjust="spacing" textLength="144" x="118" y="27.5352">PythonExceptionInterface</text><line style="stroke:#333333;stroke-width:1.5;" x1="90" x2="264" y1="39" y2="39"/><line style="stroke:#333333;stroke-width:1.5;" x1="90" x2="264" y1="47" y2="47"/><!--MD5=[ccf1ae590918c7ab73d6ece1cc73a50f]
class ReferenceException--><rect codeLine="12" fill="#EBEBEB" filter="url(#fmr6pgugixynx)" height="146.6855" id="ReferenceException" style="stroke:#333333;stroke-width:1.5;" width="272" x="7" y="115"/><ellipse cx="81.75" cy="131" fill="#ADD1B2" rx="11" ry="11" style="stroke:#333333;stroke-width:1.0;"/><path d="M84.7231,136.6431 Q84.1421,136.9419 83.5029,137.0913 Q82.8638,137.2407 82.1582,137.2407 Q79.6514,137.2407 78.3315,135.5889 Q77.0117,133.937 77.0117,130.8159 Q77.0117,127.6865 78.3315,126.0347 Q79.6514,124.3828 82.1582,124.3828 Q82.8638,124.3828 83.5112,124.5322 Q84.1587,124.6816 84.7231,124.9805 L84.7231,127.7031 Q84.0923,127.1221 83.4988,126.8523 Q82.9053,126.5825 82.2744,126.5825 Q80.9297,126.5825 80.2449,127.6492 Q79.5601,128.7158 79.5601,130.8159 Q79.5601,132.9077 80.2449,133.9744 Q80.9297,135.041 82.2744,135.041 Q82.9053,135.041 83.4988,134.7712 Q84.0923,134.5015 84.7231,133.9204 Z " fill="#000000"/><text fill="#000000" font-family="sans-serif" font-size="12" lengthAdjust="spacing" textLength="114" x="102.25" y="135.5352">ReferenceException</text><line style="stroke:#333333;stroke-width:1.5;" x1="8" x2="278" y1="147" y2="147"/><ellipse cx="18" cy="158" rx="3" ry="3" style="stroke:#038048;stroke-width:1.0;fill:none;"/><text fill="#000000" font-family="sans-serif" font-size="11" lengthAdjust="spacing" text-decoration="underline" textLength="133" x="27" y="161.6348">INVALID_QUALNAME = 1</text><ellipse cx="18" cy="170.9551" rx="3" ry="3" style="stroke:#038048;stroke-width:1.0;fill:none;"/><text fill="#000000" font-family="sans-serif" font-size="11" lengthAdjust="spacing" text-decoration="underline" textLength="105" x="27" y="174.5898">IMPORT_ERROR = 2</text><ellipse cx="18" cy="183.9102" rx="3" ry="3" style="stroke:#038048;stroke-width:1.0;fill:none;"/><text fill="#000000" font-family="sans-serif" font-size="11" lengthAdjust="spacing" text-decoration="underline" textLength="124" x="27" y="187.5449">DIFFERENT_OBJECT = 3</text><line style="stroke:#333333;stroke-width:1.0;" x1="8" x2="278" y1="193.8652" y2="193.8652"/><ellipse cx="18" cy="204.8652" rx="3" ry="3" style="stroke:#038048;stroke-width:1.0;fill:none;"/><text fill="#000000" font-family="sans-serif" font-size="11" lengthAdjust="spacing" textLength="68" x="27" y="208.5">code: int = 0</text><line style="stroke:#333333;stroke-width:1.0;" x1="8" x2="278" y1="214.8203" y2="214.8203"/><ellipse cx="18" cy="225.8203" fill="#84BE84" rx="3" ry="3" style="stroke:#038048;stroke-width:1.0;"/><text fill="#000000" font-family="sans-serif" font-size="11" lengthAdjust="spacing" text-decoration="underline" textLength="246" x="27" y="229.4551">as_invalid_qualname() -&gt; ReferenceException</text><ellipse cx="18" cy="238.7754" fill="#84BE84" rx="3" ry="3" style="stroke:#038048;stroke-width:1.0;"/><text fill="#000000" font-family="sans-serif" font-size="11" lengthAdjust="spacing" text-decoration="underline" textLength="223" x="27" y="242.4102">as_import_error() -&gt; ReferenceException</text><ellipse cx="18" cy="251.7305" fill="#84BE84" rx="3" ry="3" style="stroke:#038048;stroke-width:1.0;"/><text fill="#000000" font-family="sans-serif" font-size="11" lengthAdjust="spacing" text-decoration="underline" textLength="238" x="27" y="255.3652">as_different_object() -&gt; ReferenceException</text><!--MD5=[38b7d42805b2d2d457825be8ede665de]
class RuntimeError--><rect fill="#EBEBEB" filter="url(#fmr6pgugixynx)" height="48" id="RuntimeError" style="stroke:#333333;stroke-width:1.5;" width="108" x="368" y="7"/><ellipse cx="383" cy="23" fill="#ADD1B2" rx="11" ry="11" style="stroke:#333333;stroke-width:1.0;"/><path d="M385.9731,28.6431 Q385.3921,28.9419 384.7529,29.0913 Q384.1138,29.2407 383.4082,29.2407 Q380.9014,29.2407 379.5815,27.5889 Q378.2617,25.937 378.2617,22.8159 Q378.2617,19.6865 379.5815,18.0347 Q380.9014,16.3828 383.4082,16.3828 Q384.1138,16.3828 384.7612,16.5322 Q385.4087,16.6816 385.9731,16.9805 L385.9731,19.7031 Q385.3423,19.1221 384.7488,18.8523 Q384.1553,18.5825 383.5244,18.5825 Q382.1797,18.5825 381.4949,19.6492 Q380.8101,20.7158 380.8101,22.8159 Q380.8101,24.9077 381.4949,25.9744 Q382.1797,27.041 383.5244,27.041 Q384.1553,27.041 384.7488,26.7712 Q385.3423,26.5015 385.9731,25.9204 Z " fill="#000000"/><text fill="#000000" font-family="sans-serif" font-size="12" lengthAdjust="spacing" textLength="76" x="397" y="27.5352">RuntimeError</text><line style="stroke:#333333;stroke-width:1.5;" x1="369" x2="475" y1="39" y2="39"/><line style="stroke:#333333;stroke-width:1.5;" x1="369" x2="475" y1="47" y2="47"/><!--MD5=[f0626646303c825cfd26494a82d7a8a8]
class DereferenceException--><rect codeLine="24" fill="#EBEBEB" filter="url(#fmr6pgugixynx)" height="120.7754" id="DereferenceException" style="stroke:#333333;stroke-width:1.5;" width="284" x="314" y="128"/><ellipse cx="388.25" cy="144" fill="#ADD1B2" rx="11" ry="11" style="stroke:#333333;stroke-width:1.0;"/><path d="M391.2231,149.6431 Q390.6421,149.9419 390.0029,150.0913 Q389.3638,150.2407 388.6582,150.2407 Q386.1514,150.2407 384.8315,148.5889 Q383.5117,146.937 383.5117,143.8159 Q383.5117,140.6865 384.8315,139.0347 Q386.1514,137.3828 388.6582,137.3828 Q389.3638,137.3828 390.0112,137.5322 Q390.6587,137.6816 391.2231,137.9805 L391.2231,140.7031 Q390.5923,140.1221 389.9988,139.8523 Q389.4053,139.5825 388.7744,139.5825 Q387.4297,139.5825 386.7449,140.6492 Q386.0601,141.7158 386.0601,143.8159 Q386.0601,145.9077 386.7449,146.9744 Q387.4297,148.041 388.7744,148.041 Q389.4053,148.041 389.9988,147.7712 Q390.5923,147.5015 391.2231,146.9204 Z " fill="#000000"/><text fill="#000000" font-family="sans-serif" font-size="12" lengthAdjust="spacing" textLength="127" x="408.75" y="148.5352">DereferenceException</text><line style="stroke:#333333;stroke-width:1.5;" x1="315" x2="597" y1="160" y2="160"/><ellipse cx="325" cy="171" rx="3" ry="3" style="stroke:#038048;stroke-width:1.0;fill:none;"/><text fill="#000000" font-family="sans-serif" font-size="11" lengthAdjust="spacing" text-decoration="underline" textLength="133" x="334" y="174.6348">INVALID_QUALNAME = 1</text><ellipse cx="325" cy="183.9551" rx="3" ry="3" style="stroke:#038048;stroke-width:1.0;fill:none;"/><text fill="#000000" font-family="sans-serif" font-size="11" lengthAdjust="spacing" text-decoration="underline" textLength="105" x="334" y="187.5898">IMPORT_ERROR = 2</text><line style="stroke:#333333;stroke-width:1.0;" x1="315" x2="597" y1="193.9102" y2="193.9102"/><ellipse cx="325" cy="204.9102" rx="3" ry="3" style="stroke:#038048;stroke-width:1.0;fill:none;"/><text fill="#000000" font-family="sans-serif" font-size="11" lengthAdjust="spacing" textLength="68" x="334" y="208.5449">code: int = 0</text><line style="stroke:#333333;stroke-width:1.0;" x1="315" x2="597" y1="214.8652" y2="214.8652"/><ellipse cx="325" cy="225.8652" fill="#84BE84" rx="3" ry="3" style="stroke:#038048;stroke-width:1.0;"/><text fill="#000000" font-family="sans-serif" font-size="11" lengthAdjust="spacing" text-decoration="underline" textLength="258" x="334" y="229.5">as_invalid_qualname() -&gt; DereferenceException</text><ellipse cx="325" cy="238.8203" fill="#84BE84" rx="3" ry="3" style="stroke:#038048;stroke-width:1.0;"/><text fill="#000000" font-family="sans-serif" font-size="11" lengthAdjust="spacing" text-decoration="underline" textLength="235" x="334" y="242.4551">as_import_error() -&gt; DereferenceException</text><!--MD5=[5ce6b3faa5cf60f189a1ae9718a8d742]
reverse link RuntimeError to ReferenceException--><path d="M347.85,23 C347.85,23 272,23 272,23 C272,23 272,70.74 272,114.95 " fill="none" id="RuntimeError-backto-ReferenceException" style="stroke:#333333;stroke-width:1.0;"/><polygon fill="none" points="347.85,16,367.85,23,347.85,30,347.85,16" style="stroke:#333333;stroke-width:1.0;"/><!--MD5=[d2c376c47a0b03555fa729a9962ebba4]
reverse link PythonExceptionInterface to ReferenceException--><path d="M177,75.26 C177,75.26 177,114.76 177,114.76 " fill="none" id="PythonExceptionInterface-backto-ReferenceException" style="stroke:#333333;stroke-width:1.0;stroke-dasharray:7.0,7.0;"/><polygon fill="none" points="170,75.26,177,55.26,184,75.26,170,75.26" style="stroke:#333333;stroke-width:1.0;"/><!--MD5=[b2a01803ad3df4e303a65752693b0ed3]
reverse link RuntimeError to DereferenceException--><path d="M422,75.26 C422,75.26 422,127.8 422,127.8 " fill="none" id="RuntimeError-backto-DereferenceException" style="stroke:#333333;stroke-width:1.0;"/><polygon fill="none" points="415,75.26,422,55.26,429,75.26,415,75.26" style="stroke:#333333;stroke-width:1.0;"/><!--MD5=[aa5415a95a567d92a78d8d92d9bbcf6a]
reverse link PythonExceptionInterface to DereferenceException--><path d="M285.24,39 C285.24,39 341,39 341,39 C341,39 341,86.3 341,127.69 " fill="none" id="PythonExceptionInterface-backto-DereferenceException" style="stroke:#333333;stroke-width:1.0;stroke-dasharray:7.0,7.0;"/><polygon fill="none" points="285.24,46,265.24,39,285.24,32,285.24,46" style="stroke:#333333;stroke-width:1.0;"/><!--MD5=[684524569d734191a67e4d32835cd53d]
@startuml

skinparam class {
  BackgroundColor #ebebeb
  ArrowColor      #333
  BorderColor     #333
}

skinparam lineType ortho

interface PythonExceptionInterface {}

class ReferenceException extends RuntimeError implements PythonExceptionInterface  {
  + {static} INVALID_QUALNAME = 1
  + {static} IMPORT_ERROR = 2
  + {static} DIFFERENT_OBJECT = 3
  - - -
  + code: int = 0
  - - -
  + {static} as_invalid_qualname() -> ReferenceException
  + {static} as_import_error() -> ReferenceException
  + {static} as_different_object() -> ReferenceException
}

class DereferenceException extends RuntimeError implements PythonExceptionInterface{
  + {static} INVALID_QUALNAME = 1
  + {static} IMPORT_ERROR = 2
  - - -
  + code: int = 0
  - - -
  + {static} as_invalid_qualname() -> DereferenceException
  + {static} as_import_error() -> DereferenceException
}
@enduml

PlantUML version 1.2022.0(Tue Jan 11 19:16:42 MSK 2022)
(GPL source distribution)
Java Runtime: OpenJDK Runtime Environment
JVM: OpenJDK 64-Bit Server VM
Default Encoding: UTF-8
Language: ru
Country: RU
--></g></svg>