<?xml version="1.0" encoding="UTF-8" standalone="no"?><svg xmlns="http://www.w3.org/2000/svg" xmlns:xlink="http://www.w3.org/1999/xlink" contentScriptType="application/ecmascript" contentStyleType="text/css" height="455px" preserveAspectRatio="none" style="width:656px;height:455px;background:#FFFFFF;" version="1.1" viewBox="0 0 656 455" width="656px" zoomAndPan="magnify"><defs><filter height="300%" id="f1ws1pjeoh7lw6" width="300%" x="-1" y="-1"><feGaussianBlur result="blurOut" stdDeviation="2.0"/><feColorMatrix in="blurOut" result="blurOut2" type="matrix" values="0 0 0 0 0 0 0 0 0 0 0 0 0 0 0 0 0 0 .4 0"/><feOffset dx="4.0" dy="4.0" in="blurOut2" result="blurOut3"/><feBlend in="SourceGraphic" in2="blurOut3" mode="normal"/></filter></defs><g><!--MD5=[5e9a57a3377260e11f4c161d717e577e]
cluster builtins--><polygon fill="#FFFFFF" filter="url(#f1ws1pjeoh7lw6)" points="260,6,322,6,329,28.4883,400,28.4883,400,118,260,118,260,6" style="stroke:#000000;stroke-width:1.5;"/><line style="stroke:#000000;stroke-width:1.5;" x1="260" x2="329" y1="28.4883" y2="28.4883"/><text fill="#000000" font-family="sans-serif" font-size="14" font-weight="bold" lengthAdjust="spacing" textLength="56" x="264" y="21.5352">builtins</text><!--MD5=[995811158d96457b7146b0ce0baa2b8b]
cluster md.python--><polygon fill="#FFFFFF" filter="url(#f1ws1pjeoh7lw6)" points="16,142,98,142,105,164.4883,639,164.4883,639,448,16,448,16,142" style="stroke:#000000;stroke-width:1.5;"/><line style="stroke:#000000;stroke-width:1.5;" x1="16" x2="105" y1="164.4883" y2="164.4883"/><text fill="#000000" font-family="sans-serif" font-size="14" font-weight="bold" lengthAdjust="spacing" textLength="76" x="20" y="157.5352">md.python</text><!--MD5=[38b7d42805b2d2d457825be8ede665de]
class RuntimeError--><rect codeLine="11" fill="#EBEBEB" filter="url(#f1ws1pjeoh7lw6)" height="60.9551" id="RuntimeError" style="stroke:#333333;stroke-width:1.5;" width="108" x="276" y="41"/><ellipse cx="291" cy="57" fill="#ADD1B2" rx="11" ry="11" style="stroke:#333333;stroke-width:1.0;"/><path d="M293.9731,62.6431 Q293.3921,62.9419 292.7529,63.0913 Q292.1138,63.2407 291.4082,63.2407 Q288.9014,63.2407 287.5815,61.5889 Q286.2617,59.937 286.2617,56.8159 Q286.2617,53.6865 287.5815,52.0347 Q288.9014,50.3828 291.4082,50.3828 Q292.1138,50.3828 292.7612,50.5322 Q293.4087,50.6816 293.9731,50.9805 L293.9731,53.7031 Q293.3423,53.1221 292.7488,52.8523 Q292.1553,52.5825 291.5244,52.5825 Q290.1797,52.5825 289.4949,53.6492 Q288.8101,54.7158 288.8101,56.8159 Q288.8101,58.9077 289.4949,59.9744 Q290.1797,61.041 291.5244,61.041 Q292.1553,61.041 292.7488,60.7712 Q293.3423,60.5015 293.9731,59.9204 Z " fill="#000000"/><text fill="#000000" font-family="sans-serif" font-size="12" lengthAdjust="spacing" textLength="76" x="305" y="61.5352">RuntimeError</text><line style="stroke:#333333;stroke-width:1.5;" x1="277" x2="383" y1="73" y2="73"/><text fill="#000000" font-family="sans-serif" font-size="11" lengthAdjust="spacing" textLength="9" x="282" y="87.6348">...</text><line style="stroke:#333333;stroke-width:1.5;" x1="277" x2="383" y1="93.9551" y2="93.9551"/><!--MD5=[3afc29ee1ef1b4aa598c0114c5829f88]
class PythonExceptionInterface--><rect codeLine="17" fill="#EBEBEB" filter="url(#f1ws1pjeoh7lw6)" height="48" id="PythonExceptionInterface" style="stroke:#333333;stroke-width:1.5;" width="176" x="242" y="384"/><ellipse cx="257" cy="400" fill="#B4A7E5" rx="11" ry="11" style="stroke:#333333;stroke-width:1.0;"/><path d="M252.9277,395.7651 L252.9277,393.6069 L260.3071,393.6069 L260.3071,395.7651 L257.8418,395.7651 L257.8418,403.8418 L260.3071,403.8418 L260.3071,406 L252.9277,406 L252.9277,403.8418 L255.3931,403.8418 L255.3931,395.7651 Z " fill="#000000"/><text fill="#000000" font-family="sans-serif" font-size="12" font-style="italic" lengthAdjust="spacing" textLength="144" x="271" y="404.5352">PythonExceptionInterface</text><line style="stroke:#333333;stroke-width:1.5;" x1="243" x2="417" y1="416" y2="416"/><line style="stroke:#333333;stroke-width:1.5;" x1="243" x2="417" y1="424" y2="424"/><!--MD5=[ccf1ae590918c7ab73d6ece1cc73a50f]
class ReferenceException--><rect codeLine="19" fill="#EBEBEB" filter="url(#f1ws1pjeoh7lw6)" height="146.6855" id="ReferenceException" style="stroke:#333333;stroke-width:1.5;" width="272" x="351" y="177"/><ellipse cx="425.75" cy="193" fill="#ADD1B2" rx="11" ry="11" style="stroke:#333333;stroke-width:1.0;"/><path d="M428.7231,198.6431 Q428.1421,198.9419 427.5029,199.0913 Q426.8638,199.2407 426.1582,199.2407 Q423.6514,199.2407 422.3315,197.5889 Q421.0117,195.937 421.0117,192.8159 Q421.0117,189.6865 422.3315,188.0347 Q423.6514,186.3828 426.1582,186.3828 Q426.8638,186.3828 427.5112,186.5322 Q428.1587,186.6816 428.7231,186.9805 L428.7231,189.7031 Q428.0923,189.1221 427.4988,188.8523 Q426.9053,188.5825 426.2744,188.5825 Q424.9297,188.5825 424.2449,189.6492 Q423.5601,190.7158 423.5601,192.8159 Q423.5601,194.9077 424.2449,195.9744 Q424.9297,197.041 426.2744,197.041 Q426.9053,197.041 427.4988,196.7712 Q428.0923,196.5015 428.7231,195.9204 Z " fill="#000000"/><text fill="#000000" font-family="sans-serif" font-size="12" lengthAdjust="spacing" textLength="114" x="446.25" y="197.5352">ReferenceException</text><line style="stroke:#333333;stroke-width:1.5;" x1="352" x2="622" y1="209" y2="209"/><ellipse cx="362" cy="220" rx="3" ry="3" style="stroke:#038048;stroke-width:1.0;fill:none;"/><text fill="#000000" font-family="sans-serif" font-size="11" lengthAdjust="spacing" text-decoration="underline" textLength="133" x="371" y="223.6348">INVALID_QUALNAME = 1</text><ellipse cx="362" cy="232.9551" rx="3" ry="3" style="stroke:#038048;stroke-width:1.0;fill:none;"/><text fill="#000000" font-family="sans-serif" font-size="11" lengthAdjust="spacing" text-decoration="underline" textLength="105" x="371" y="236.5898">IMPORT_ERROR = 2</text><ellipse cx="362" cy="245.9102" rx="3" ry="3" style="stroke:#038048;stroke-width:1.0;fill:none;"/><text fill="#000000" font-family="sans-serif" font-size="11" lengthAdjust="spacing" text-decoration="underline" textLength="124" x="371" y="249.5449">DIFFERENT_OBJECT = 3</text><line style="stroke:#333333;stroke-width:1.0;" x1="352" x2="622" y1="255.8652" y2="255.8652"/><ellipse cx="362" cy="266.8652" rx="3" ry="3" style="stroke:#038048;stroke-width:1.0;fill:none;"/><text fill="#000000" font-family="sans-serif" font-size="11" lengthAdjust="spacing" textLength="68" x="371" y="270.5">code: int = 0</text><line style="stroke:#333333;stroke-width:1.0;" x1="352" x2="622" y1="276.8203" y2="276.8203"/><ellipse cx="362" cy="287.8203" fill="#84BE84" rx="3" ry="3" style="stroke:#038048;stroke-width:1.0;"/><text fill="#000000" font-family="sans-serif" font-size="11" lengthAdjust="spacing" text-decoration="underline" textLength="246" x="371" y="291.4551">as_invalid_qualname() -&gt; ReferenceException</text><ellipse cx="362" cy="300.7754" fill="#84BE84" rx="3" ry="3" style="stroke:#038048;stroke-width:1.0;"/><text fill="#000000" font-family="sans-serif" font-size="11" lengthAdjust="spacing" text-decoration="underline" textLength="223" x="371" y="304.4102">as_import_error() -&gt; ReferenceException</text><ellipse cx="362" cy="313.7305" fill="#84BE84" rx="3" ry="3" style="stroke:#038048;stroke-width:1.0;"/><text fill="#000000" font-family="sans-serif" font-size="11" lengthAdjust="spacing" text-decoration="underline" textLength="238" x="371" y="317.3652">as_different_object() -&gt; ReferenceException</text><!--MD5=[f0626646303c825cfd26494a82d7a8a8]
class DereferenceException--><rect codeLine="31" fill="#EBEBEB" filter="url(#f1ws1pjeoh7lw6)" height="120.7754" id="DereferenceException" style="stroke:#333333;stroke-width:1.5;" width="284" x="32" y="190"/><ellipse cx="106.25" cy="206" fill="#ADD1B2" rx="11" ry="11" style="stroke:#333333;stroke-width:1.0;"/><path d="M109.2231,211.6431 Q108.6421,211.9419 108.0029,212.0913 Q107.3638,212.2407 106.6582,212.2407 Q104.1514,212.2407 102.8315,210.5889 Q101.5117,208.937 101.5117,205.8159 Q101.5117,202.6865 102.8315,201.0347 Q104.1514,199.3828 106.6582,199.3828 Q107.3638,199.3828 108.0112,199.5322 Q108.6587,199.6816 109.2231,199.9805 L109.2231,202.7031 Q108.5923,202.1221 107.9988,201.8523 Q107.4053,201.5825 106.7744,201.5825 Q105.4297,201.5825 104.7449,202.6492 Q104.0601,203.7158 104.0601,205.8159 Q104.0601,207.9077 104.7449,208.9744 Q105.4297,210.041 106.7744,210.041 Q107.4053,210.041 107.9988,209.7712 Q108.5923,209.5015 109.2231,208.9204 Z " fill="#000000"/><text fill="#000000" font-family="sans-serif" font-size="12" lengthAdjust="spacing" textLength="127" x="126.75" y="210.5352">DereferenceException</text><line style="stroke:#333333;stroke-width:1.5;" x1="33" x2="315" y1="222" y2="222"/><ellipse cx="43" cy="233" rx="3" ry="3" style="stroke:#038048;stroke-width:1.0;fill:none;"/><text fill="#000000" font-family="sans-serif" font-size="11" lengthAdjust="spacing" text-decoration="underline" textLength="133" x="52" y="236.6348">INVALID_QUALNAME = 1</text><ellipse cx="43" cy="245.9551" rx="3" ry="3" style="stroke:#038048;stroke-width:1.0;fill:none;"/><text fill="#000000" font-family="sans-serif" font-size="11" lengthAdjust="spacing" text-decoration="underline" textLength="105" x="52" y="249.5898">IMPORT_ERROR = 2</text><line style="stroke:#333333;stroke-width:1.0;" x1="33" x2="315" y1="255.9102" y2="255.9102"/><ellipse cx="43" cy="266.9102" rx="3" ry="3" style="stroke:#038048;stroke-width:1.0;fill:none;"/><text fill="#000000" font-family="sans-serif" font-size="11" lengthAdjust="spacing" textLength="68" x="52" y="270.5449">code: int = 0</text><line style="stroke:#333333;stroke-width:1.0;" x1="33" x2="315" y1="276.8652" y2="276.8652"/><ellipse cx="43" cy="287.8652" fill="#84BE84" rx="3" ry="3" style="stroke:#038048;stroke-width:1.0;"/><text fill="#000000" font-family="sans-serif" font-size="11" lengthAdjust="spacing" text-decoration="underline" textLength="258" x="52" y="291.5">as_invalid_qualname() -&gt; DereferenceException</text><ellipse cx="43" cy="300.8203" fill="#84BE84" rx="3" ry="3" style="stroke:#038048;stroke-width:1.0;"/><text fill="#000000" font-family="sans-serif" font-size="11" lengthAdjust="spacing" text-decoration="underline" textLength="235" x="52" y="304.4551">as_import_error() -&gt; DereferenceException</text><!--MD5=[5ce6b3faa5cf60f189a1ae9718a8d742]
reverse link RuntimeError to ReferenceException--><path d="M367.5,122.27 C367.5,122.27 367.5,176.63 367.5,176.63 " fill="none" id="RuntimeError-backto-ReferenceException" style="stroke:#333333;stroke-width:1.0;"/><polygon fill="none" points="360.5,122.27,367.5,102.27,374.5,122.27,360.5,122.27" style="stroke:#333333;stroke-width:1.0;"/><!--MD5=[b2a01803ad3df4e303a65752693b0ed3]
reverse link RuntimeError to DereferenceException--><path d="M296,122.27 C296,122.27 296,189.76 296,189.76 " fill="none" id="RuntimeError-backto-DereferenceException" style="stroke:#333333;stroke-width:1.0;"/><polygon fill="none" points="289,122.27,296,102.27,303,122.27,289,122.27" style="stroke:#333333;stroke-width:1.0;"/><!--MD5=[e7fbbfc40e9b0809826ff1774e3adb08]
link ReferenceException to PythonExceptionInterface--><path codeLine="41" d="M384.5,324.18 C384.5,324.18 384.5,363.65 384.5,363.65 " fill="none" id="ReferenceException-to-PythonExceptionInterface" style="stroke:#333333;stroke-width:1.0;stroke-dasharray:7.0,7.0;"/><polygon fill="none" points="391.5,363.65,384.5,383.65,377.5,363.65,391.5,363.65" style="stroke:#333333;stroke-width:1.0;"/><!--MD5=[603644810f9f15687897eb7830e38f69]
link DereferenceException to PythonExceptionInterface--><path codeLine="42" d="M279,311.39 C279,311.39 279,363.82 279,363.82 " fill="none" id="DereferenceException-to-PythonExceptionInterface" style="stroke:#333333;stroke-width:1.0;stroke-dasharray:7.0,7.0;"/><polygon fill="none" points="286,363.82,279,383.82,272,363.82,286,363.82" style="stroke:#333333;stroke-width:1.0;"/><!--MD5=[c9cbaa7e68e97c7ac273a34213d2049f]
@startuml

skinparam class {
  BackgroundColor #ebebeb
  ArrowColor      #333
  BorderColor     #333
}

skinparam lineType ortho

package builtins {
  class RuntimeError {
    ...
  }
}

package md.python {
  interface PythonExceptionInterface {}

  class ReferenceException extends RuntimeError {
    + {static} INVALID_QUALNAME = 1
    + {static} IMPORT_ERROR = 2
    + {static} DIFFERENT_OBJECT = 3
    - - -
    + code: int = 0
    - - -
    + {static} as_invalid_qualname() -> ReferenceException
    + {static} as_import_error() -> ReferenceException
    + {static} as_different_object() -> ReferenceException
  }

  class DereferenceException extends RuntimeError {
    + {static} INVALID_QUALNAME = 1
    + {static} IMPORT_ERROR = 2
    - - -
    + code: int = 0
    - - -
    + {static} as_invalid_qualname() -> DereferenceException
    + {static} as_import_error() -> DereferenceException
  }

  ReferenceException ..|> PythonExceptionInterface
  DereferenceException ..|> PythonExceptionInterface
}
@enduml

PlantUML version 1.2022.0(Tue Jan 11 19:16:42 MSK 2022)
(GPL source distribution)
Java Runtime: OpenJDK Runtime Environment
JVM: OpenJDK 64-Bit Server VM
Default Encoding: UTF-8
Language: ru
Country: RU
--></g></svg>